<svg xmlns="http://www.w3.org/2000/svg" xmlns:svgjs="http://svgjs.com/svgjs" xmlns:xlink="http://www.w3.org/1999/xlink" style="enable-background:new 0 0 512 512" width="512" height="512" x="0" y="0" version="1.1" viewBox="0 0 24 24" xml:space="preserve"><g><path xmlns="http://www.w3.org/2000/svg" fill="#fff" d="m14.828 12 5.303-5.303c.586-.586.586-1.536 0-2.121l-.707-.707c-.586-.586-1.536-.586-2.121 0l-5.303 5.303-5.303-5.304c-.586-.586-1.536-.586-2.121 0l-.708.707c-.586.586-.586 1.536 0 2.121l5.304 5.304-5.303 5.303c-.586.586-.586 1.536 0 2.121l.707.707c.586.586 1.536.586 2.121 0l5.303-5.303 5.303 5.303c.586.586 1.536.586 2.121 0l.707-.707c.586-.586.586-1.536 0-2.121z" data-original="#000000"/></g></svg>