<?xml version="1.0" encoding="iso-8859-1"?>
<!-- Generator: Adobe Illustrator 16.0.0, SVG Export Plug-In . SVG Version: 6.00 Build 0)  -->
<!DOCTYPE svg PUBLIC "-//W3C//DTD SVG 1.1//EN" "http://www.w3.org/Graphics/SVG/1.1/DTD/svg11.dtd">
<svg version="1.1" id="Capa_1" xmlns="http://www.w3.org/2000/svg" xmlns:xlink="http://www.w3.org/1999/xlink" x="0px" y="0px"
	 width="612px" height="612px" viewBox="0 0 612 612" style="enable-background:new 0 0 612 612;" xml:space="preserve">
<g>
	<g id="_x33__24_">
		<g>
			<path d="M306,0C136.992,0,0,136.992,0,306s136.992,306,306,306s306-137.012,306-306S475.008,0,306,0z M469.231,246.311
				l-146.439,146.44c-4.59,4.59-10.863,6.005-16.811,4.973c-5.929,1.052-12.221-0.383-16.811-4.973l-146.44-146.44
				c-7.478-7.478-7.478-19.565,0-27.043s19.584-7.478,27.042,0L306,355.457l136.189-136.189c7.478-7.478,19.584-7.478,27.042,0
				C476.71,226.727,476.71,238.833,469.231,246.311z"/>
		</g>
	</g>
</g>
<g>
</g>
<g>
</g>
<g>
</g>
<g>
</g>
<g>
</g>
<g>
</g>
<g>
</g>
<g>
</g>
<g>
</g>
<g>
</g>
<g>
</g>
<g>
</g>
<g>
</g>
<g>
</g>
<g>
</g>
</svg>
