<?xml version="1.0" encoding="UTF-8" standalone="no"?>
<!-- Copyright 2017 mathsisfun.com -->
<svg xmlns="http://www.w3.org/2000/svg" xmlns:xlink="http://www.w3.org/1999/xlink" width="65.7" height="66.2" version="1.1">
<defs>
	<linearGradient id="id1">
		<stop offset="0" style="stop-color:#e0e49c; stop-opacity:1;"/>
		<stop offset="1" style="stop-color:#ceceb2; stop-opacity:0;"/>
	</linearGradient>
	<linearGradient id="id2" xlink:href="#id1" x1="268.5" y1="190.1" x2="80.1" y2="114.8" gradientUnits="userSpaceOnUse"/>
</defs>
<polyline points="212.90 210.17, 196.62 350.77, 349.54 250.79" transform="matrix(0.25,0,0,0.25,-21.7477,-21.7682)" style="fill:#32324e; fill-opacity:0.5; stroke:black; stroke-width:1;"/>
<polyline points="255.73 88.814, 212.90 210.17, 349.54 250.79" transform="matrix(0.25,0,0,0.25,-21.7477,-21.7682)" style="fill:#80804e; fill-opacity:0.5; stroke:black; stroke-width:1;"/>
<polyline points="196.62 350.77, 212.90 210.17, 87.399 196.50" transform="matrix(0.25,0,0,0.25,-21.7477,-21.7682)" style="fill:#3232b2; fill-opacity:0.5; stroke:black; stroke-width:1;"/>
<polyline points="212.90 210.17, 255.73 88.814, 87.399 196.50" transform="matrix(0.25,0,0,0.25,-21.7477,-21.7682)" style="fill:#8080b2; fill-opacity:0.5; stroke:black; stroke-width:1;"/>
<polyline points="196.62 350.77, 249.10 254.54, 349.54 250.79" transform="matrix(0.25,0,0,0.25,-21.7477,-21.7682)" style="fill:#80804e; fill-opacity:0.5; stroke:black; stroke-width:1;"/>
<polyline points="249.10 254.54, 255.73 88.814, 349.54 250.79" transform="matrix(0.25,0,0,0.25,-21.7477,-21.7682)" style="fill:#cece4e; fill-opacity:0.5; stroke:black; stroke-width:1;"/>
<polyline points="249.10 254.54, 196.62 350.77, 87.399 196.50" transform="matrix(0.25,0,0,0.25,-21.7477,-21.7682)" style="fill:#9f9fc5; fill-opacity:0.5; stroke:black; stroke-width:1;"/>
<polyline points="255.73 88.814, 249.10 254.54, 87.399 196.50" transform="matrix(0.25,0,0,0.25,-21.7477,-21.7682)" style="fill:url(#id2); stroke:black; stroke-width:1;"/>
</svg>